<?xml version="1.0" encoding="UTF-8"?>
<svg width="225px" height="195px" viewBox="0 0 225 195" version="1.1" xmlns="http://www.w3.org/2000/svg" xmlns:xlink="http://www.w3.org/1999/xlink">
    <!-- Generator: Sketch 55.2 (78181) - https://sketchapp.com -->
    <title>paw</title>
    <g id="Paw" stroke="none" stroke-width="1" fill="none" fill-rule="evenodd">
        <g id="paw" transform="translate(1.000000, 1.000000)">
            <ellipse id="Oval" stroke="#000000" fill-opacity="0.685342002" fill="#ffffff" cx="111.5" cy="96.5" rx="111.5" ry="96.5"></ellipse>
            <path d="M108.5,165 C140.5,176 169,167.241654 169,133 C169,98.7583455 141.913227,71 108.5,71 C75.0867726,71 48,98.7583455 48,133 C48,167.241654 81,176 108.5,165 Z" id="Oval" fill="#663399"></path>
            <path d="M79.5,71 C92.4786916,71 105,59.8071187 105,46 C105,32.1928813 92.4786916,18 79.5,18 C66.5213084,18 54,32.1928813 54,46 C54,59.8071187 66.5213084,71 79.5,71 Z" id="Oval" fill="#663399" transform="translate(79.500000, 44.500000) rotate(-6.000000) translate(-79.500000, -44.500000) "></path>
            <path d="M139.5,71 C152.478692,71 165,59.8071187 165,46 C165,32.1928813 152.478692,18 139.5,18 C126.521308,18 114,32.1928813 114,46 C114,59.8071187 126.521308,71 139.5,71 Z" id="Oval" fill="#663399" transform="translate(139.500000, 44.500000) scale(-1, 1) rotate(-6.000000) translate(-139.500000, -44.500000) "></path>
            <path d="M35.5,109 C48.4786916,109 59,93.8071187 59,80 C59,66.1928813 48.4786916,55 35.5,55 C22.5213084,55 12,66.1928813 12,80 C12,93.8071187 22.5213084,109 35.5,109 Z" id="Oval" fill="#663399" transform="translate(35.500000, 82.000000) rotate(-26.000000) translate(-35.500000, -82.000000) "></path>
            <path d="M182.5,109 C195.478692,109 206,93.8071187 206,80 C206,66.1928813 195.478692,55 182.5,55 C169.521308,55 159,66.1928813 159,80 C159,93.8071187 169.521308,109 182.5,109 Z" id="Oval" fill="#663399" transform="translate(182.500000, 82.000000) scale(-1, 1) rotate(-26.000000) translate(-182.500000, -82.000000) "></path>
        </g>
    </g>
</svg>