<?xml version="1.0" standalone="no"?>
<!DOCTYPE svg PUBLIC "-//W3C//DTD SVG 20010904//EN"
 "http://www.w3.org/TR/2001/REC-SVG-20010904/DTD/svg10.dtd">
<svg version="1.0" xmlns="http://www.w3.org/2000/svg"
 width="1668.000000pt" height="1668.000000pt" viewBox="0 0 1668.000000 1668.000000"
 preserveAspectRatio="xMidYMid meet">
<metadata>
Created by potrace 1.11, written by Peter Selinger 2001-2013
</metadata>
<g transform="translate(0.000000,1668.000000) scale(0.100000,-0.100000)"
fill="#000000" stroke="none">
<path d="M8018 16635 c-1 -1 -68 -6 -148 -9 -80 -4 -158 -9 -175 -11 -16 -2
-66 -7 -110 -10 -44 -3 -91 -7 -105 -10 -14 -2 -54 -6 -90 -10 -36 -3 -76 -7
-90 -9 -14 -3 -47 -7 -75 -11 -27 -3 -106 -15 -175 -26 -69 -11 -141 -22 -160
-25 -196 -30 -631 -132 -896 -210 -258 -75 -689 -226 -839 -294 -11 -5 -69
-30 -130 -56 -60 -25 -135 -58 -165 -71 -64 -29 -448 -219 -470 -233 -8 -5
-73 -41 -143 -80 -237 -131 -611 -369 -807 -514 -41 -31 -86 -64 -100 -73 -68
-50 -328 -257 -420 -336 -178 -152 -278 -245 -480 -447 -233 -232 -326 -333
-486 -525 -32 -38 -61 -72 -64 -75 -43 -38 -370 -479 -486 -655 -32 -49 -62
-94 -67 -100 -16 -22 -57 -87 -144 -230 -202 -335 -388 -700 -539 -1059 -30
-72 -59 -140 -64 -151 -67 -151 -234 -649 -295 -881 -14 -54 -28 -106 -31
-114 -5 -18 -22 -90 -64 -270 -56 -245 -131 -691 -145 -865 -3 -27 -7 -63 -9
-80 -3 -16 -8 -64 -11 -105 -4 -41 -8 -93 -10 -115 -26 -255 -26 -1118 -1
-1275 3 -14 7 -63 11 -110 4 -47 8 -101 11 -120 4 -37 9 -78 20 -175 3 -33 8
-69 10 -80 2 -10 6 -37 9 -60 3 -22 17 -105 30 -185 33 -192 36 -208 49 -275
171 -822 428 -1532 822 -2275 54 -101 140 -251 257 -445 50 -84 349 -525 390
-575 6 -9 41 -54 77 -100 67 -88 220 -281 230 -290 3 -3 50 -57 105 -120 132
-153 188 -212 395 -420 215 -215 300 -293 560 -514 23 -19 92 -75 144 -116 10
-8 33 -26 50 -40 64 -53 266 -200 391 -286 171 -117 477 -314 488 -314 3 0 34
-17 68 -38 217 -131 575 -312 879 -444 319 -138 710 -277 1047 -373 269 -76
633 -158 843 -191 14 -2 41 -7 60 -10 57 -10 73 -12 115 -19 92 -13 178 -25
223 -30 26 -3 67 -8 92 -11 64 -9 94 -11 190 -19 47 -3 96 -8 110 -10 174 -26
1076 -26 1280 0 19 2 71 7 115 10 44 4 91 8 105 10 14 2 52 6 85 10 820 84
1779 353 2570 720 180 84 539 268 595 305 14 9 57 34 95 55 205 112 621 390
880 589 72 55 144 111 160 125 17 14 51 42 75 61 24 19 48 40 54 45 6 6 45 39
86 74 183 156 518 479 680 656 136 149 271 306 374 435 37 47 75 94 84 105 55
67 259 352 356 498 526 795 900 1638 1136 2567 18 69 34 134 36 145 2 11 6 29
8 40 16 72 48 224 52 245 2 14 6 34 9 46 3 12 7 39 10 60 4 21 8 46 10 54 3 8
7 33 10 55 3 22 10 65 15 95 5 30 12 75 15 100 3 25 10 72 15 105 5 33 12 89
15 125 4 36 9 79 11 95 2 17 6 64 9 105 3 41 8 91 10 110 26 222 27 948 1
1265 -3 28 -7 84 -10 125 -4 41 -8 86 -11 100 -2 14 -7 57 -10 95 -3 39 -8 77
-10 85 -2 8 -7 36 -10 62 -8 75 -31 231 -41 283 -2 11 -7 34 -9 50 -3 17 -10
55 -16 85 -6 30 -13 69 -15 85 -16 94 -119 528 -144 610 -6 17 -37 118 -70
225 -80 262 -114 361 -203 585 -162 411 -363 826 -564 1163 -40 68 -73 126
-73 128 0 3 -5 10 -10 17 -6 7 -45 68 -88 136 -193 304 -501 717 -718 961 -17
19 -71 80 -119 135 -107 120 -457 471 -574 575 -46 41 -89 80 -95 85 -55 50
-170 146 -256 216 -58 46 -107 86 -110 89 -3 3 -50 39 -105 80 -55 41 -102 77
-105 80 -3 3 -16 13 -30 22 -14 9 -54 38 -90 63 -202 144 -493 328 -744 470
-101 57 -456 239 -552 283 -169 78 -487 209 -664 274 -30 12 -64 24 -75 29
-181 71 -716 223 -1015 288 -106 23 -112 24 -265 52 -60 10 -117 21 -125 24
-8 2 -39 7 -69 10 -30 4 -61 8 -70 10 -16 3 -82 13 -131 20 -25 4 -85 11 -162
20 -24 2 -65 7 -93 10 -27 4 -70 8 -95 10 -67 4 -208 15 -270 21 -62 6 -816
14 -822 9z"/>
</g>
</svg>
