<?xml version="1.0" standalone="no"?>
<!DOCTYPE svg PUBLIC "-//W3C//DTD SVG 20010904//EN"
 "http://www.w3.org/TR/2001/REC-SVG-20010904/DTD/svg10.dtd">
<svg version="1.0" xmlns="http://www.w3.org/2000/svg"
 width="1668.000000pt" height="1668.000000pt" viewBox="0 0 1668.000000 1668.000000"
 preserveAspectRatio="xMidYMid meet">
<metadata>
Created by potrace 1.14, written by Peter Selinger 2001-2017
</metadata>
<g transform="translate(0.000000,1668.000000) scale(0.100000,-0.100000)"
fill="#000000" stroke="none">
<path d="M8018 16635 c-1 -1 -68 -6 -148 -9 -80 -4 -158 -9 -175 -11 -16 -2
-64 -7 -105 -10 -103 -8 -161 -14 -255 -26 -44 -6 -98 -13 -120 -15 -37 -5
-260 -40 -315 -49 -14 -3 -52 -9 -85 -15 -33 -6 -89 -17 -125 -25 -36 -8 -81
-17 -100 -20 -19 -3 -78 -17 -131 -30 -53 -13 -107 -26 -120 -29 -65 -12 -295
-76 -454 -125 -55 -18 -107 -33 -115 -35 -53 -14 -344 -120 -500 -181 -345
-136 -704 -306 -1005 -475 -33 -18 -69 -38 -80 -44 -11 -6 -31 -18 -45 -27
-14 -8 -65 -39 -115 -69 -330 -195 -833 -554 -1059 -755 -6 -5 -38 -32 -71
-60 -33 -27 -67 -57 -76 -65 -9 -8 -58 -53 -110 -100 -248 -224 -565 -555
-784 -820 -48 -58 -96 -116 -107 -129 -48 -56 -270 -356 -346 -466 -502 -730
-856 -1467 -1125 -2340 -20 -65 -98 -352 -112 -415 -2 -8 -16 -67 -30 -130
-15 -63 -29 -124 -31 -135 -2 -11 -11 -56 -19 -100 -8 -44 -19 -102 -25 -130
-13 -71 -38 -221 -45 -280 -3 -27 -10 -79 -15 -115 -5 -36 -12 -92 -15 -125
-3 -33 -7 -69 -10 -80 -2 -11 -7 -58 -10 -105 -4 -47 -8 -101 -10 -120 -26
-234 -26 -1110 -1 -1270 3 -14 7 -63 11 -110 4 -47 8 -101 11 -120 4 -37 9
-78 20 -175 3 -33 8 -69 10 -80 2 -10 6 -37 9 -60 5 -35 45 -275 60 -360 9
-49 17 -88 39 -190 8 -39 17 -82 20 -95 2 -14 18 -79 34 -145 195 -784 497
-1529 890 -2198 48 -81 91 -156 97 -167 5 -11 13 -20 17 -20 5 0 8 -5 8 -10 0
-6 23 -44 50 -86 28 -41 50 -77 50 -79 0 -5 202 -299 210 -305 3 -3 21 -27 40
-55 19 -27 53 -75 77 -105 24 -30 46 -60 51 -65 19 -27 206 -261 211 -265 4
-3 51 -57 106 -120 170 -197 474 -509 664 -680 52 -47 102 -92 111 -100 28
-26 252 -213 328 -274 977 -778 2176 -1346 3407 -1612 39 -9 79 -18 90 -20 48
-11 309 -59 380 -69 22 -4 51 -8 65 -10 49 -8 171 -25 215 -30 25 -3 64 -7 88
-10 23 -2 60 -7 82 -9 22 -3 72 -7 110 -11 39 -3 90 -7 115 -10 266 -27 1047
-27 1285 0 22 2 72 7 110 10 83 7 142 13 210 21 28 4 61 8 75 9 59 6 239 32
276 40 11 2 45 7 75 11 30 3 57 8 60 10 4 2 24 6 45 10 120 18 400 80 674 149
316 80 894 285 1220 433 135 61 181 81 183 81 8 0 413 211 502 261 61 34 128
73 150 85 37 21 78 45 299 183 83 52 456 309 466 322 3 4 32 26 65 51 72 53
65 47 200 156 61 48 112 90 115 94 3 3 41 37 85 74 283 239 637 595 906 910
763 895 1336 1964 1657 3090 38 131 99 365 108 410 2 11 6 29 8 40 16 72 48
224 52 245 2 14 6 34 9 46 3 12 7 39 10 60 4 21 8 46 10 54 3 8 7 33 10 55 3
22 10 65 15 95 5 30 12 75 15 100 3 25 10 72 15 105 5 33 12 89 15 125 4 36 9
79 11 95 2 17 6 64 9 105 3 41 8 91 10 110 26 222 27 948 1 1265 -3 28 -7 82
-10 120 -3 39 -8 86 -10 105 -3 19 -8 62 -11 95 -3 33 -8 71 -10 85 -5 31 -12
80 -20 145 -6 44 -10 76 -30 191 -2 17 -12 66 -20 110 -9 43 -18 95 -21 114
-8 50 -81 374 -100 440 -8 30 -17 66 -20 80 -2 14 -11 48 -19 75 -203 704
-424 1242 -764 1859 -238 433 -638 1003 -967 1376 -164 187 -234 261 -403 430
-108 107 -236 231 -285 275 -49 44 -97 87 -106 95 -87 84 -519 428 -630 503
-14 9 -47 33 -75 52 -68 49 -348 235 -408 271 -27 16 -56 34 -65 39 -447 270
-891 487 -1362 665 -91 34 -174 66 -185 70 -211 87 -916 278 -1200 326 -16 3
-41 7 -55 10 -14 3 -52 9 -84 15 -33 5 -62 12 -65 13 -3 2 -31 7 -62 10 -31 4
-65 8 -75 10 -18 3 -74 12 -134 21 -50 8 -143 18 -260 30 -41 4 -86 8 -100 10
-14 2 -68 6 -120 10 -52 3 -117 9 -145 11 -56 6 -811 14 -817 9z"/>
</g>
</svg>
