<?xml version="1.0" standalone="no"?>
<!DOCTYPE svg PUBLIC "-//W3C//DTD SVG 20010904//EN"
 "http://www.w3.org/TR/2001/REC-SVG-20010904/DTD/svg10.dtd">
<svg version="1.0" xmlns="http://www.w3.org/2000/svg"
 width="514.000000pt" height="514.000000pt" viewBox="0 0 514.000000 514.000000"
 preserveAspectRatio="xMidYMid meet">
<metadata>
Created by potrace 1.11, written by Peter Selinger 2001-2013
</metadata>
<g transform="translate(0.000000,514.000000) scale(0.100000,-0.100000)"
fill="#000000" stroke="none">
<path d="M2320 5124 c-369 -44 -678 -140 -971 -300 -637 -346 -1094 -938
-1268 -1639 -57 -231 -66 -314 -66 -615 0 -301 9 -384 66 -615 230 -925 949
-1644 1874 -1874 231 -57 314 -66 615 -66 301 0 384 9 615 66 925 230 1644
949 1874 1874 57 231 66 314 66 615 0 301 -9 384 -66 615 -228 919 -942 1638
-1859 1871 -214 54 -307 65 -585 69 -143 1 -276 1 -295 -1z m560 -19 c283 -35
556 -117 815 -244 511 -250 916 -655 1166 -1166 177 -361 259 -717 259 -1125
0 -408 -82 -764 -259 -1125 -250 -511 -655 -916 -1166 -1166 -361 -177 -717
-259 -1125 -259 -408 0 -764 82 -1125 259 -511 250 -916 655 -1166 1166 -177
361 -259 717 -259 1125 0 408 82 764 259 1125 250 511 655 916 1166 1166 253
124 531 208 803 243 150 19 479 20 632 1z"/>
<path d="M1735 4641 c-186 -46 -358 -236 -441 -491 -26 -78 -28 -98 -28 -240
-1 -144 1 -160 26 -228 107 -293 380 -473 640 -422 106 20 183 65 279 160 72
71 94 100 133 180 103 211 101 441 -6 655 -135 269 -396 436 -603 386z"/>
<path d="M3131 4634 c-97 -26 -171 -72 -266 -168 -100 -101 -157 -191 -202
-321 -25 -73 -27 -93 -28 -225 0 -133 2 -151 28 -225 90 -256 288 -427 512
-443 233 -16 470 150 568 398 106 269 28 619 -186 839 -134 137 -276 186 -426
145z"/>
<path d="M700 3649 c-90 -15 -191 -72 -265 -150 -146 -156 -205 -389 -157
-623 49 -234 216 -455 417 -551 296 -141 541 -9 637 341 31 115 31 353 0 474
-87 341 -353 555 -632 509z"/>
<path d="M4155 3645 c-178 -39 -317 -158 -405 -348 -21 -45 -45 -111 -55 -147
-22 -85 -31 -315 -16 -406 37 -217 130 -367 273 -440 70 -36 187 -44 274 -19
185 53 373 222 464 416 68 146 89 342 54 502 -51 230 -208 399 -413 443 -79
16 -98 16 -176 -1z"/>
<path d="M2262 3219 c-247 -52 -463 -172 -656 -365 -118 -118 -210 -247 -295
-415 -112 -223 -172 -443 -190 -701 -37 -515 146 -888 507 -1034 126 -51 177
-59 357 -59 191 0 264 12 423 72 l94 35 106 -35 c187 -61 257 -72 452 -72 153
0 185 3 254 23 298 86 486 312 550 659 62 335 0 759 -159 1088 -215 445 -591
746 -1018 815 -103 17 -320 11 -425 -11z"/>
</g>
</svg>
