<?xml version="1.0" encoding="UTF-8"?>
<svg width="78px" height="74px" viewBox="0 0 78 74" version="1.1" xmlns="http://www.w3.org/2000/svg" xmlns:xlink="http://www.w3.org/1999/xlink">
    <!-- Generator: Sketch 55.2 (78181) - https://sketchapp.com -->
    <title>Group</title>
    <desc>Created with Sketch.</desc>
    <defs>
        <path d="M26.7087402,16.9208984 C31.4030996,15.1240145 35.3561851,14.2255859 38.5681152,14.2255859 C42.6335652,14.2255859 46.1486668,15.3598519 49.1135254,17.628418 C52.078384,19.896984 53.560791,22.8842588 53.560791,26.590332 C53.560791,28.6567486 53.0947312,30.4142994 52.1625977,31.8630371 C51.2304641,33.3117748 49.6301383,35.0580952 47.3615723,37.1020508 C45.1603894,39.1235453 43.6386761,40.7912532 42.7963867,42.1052246 C41.9540974,43.419196 41.532959,44.9970611 41.532959,46.8388672 L41.532959,47.6474609 L32.3352051,47.6474609 L32.3352051,45.7607422 C32.3352051,42.8857278 32.7394979,40.6396565 33.5480957,39.0224609 C34.3566935,37.4052654 35.9738648,35.439953 38.3996582,33.1264648 C40.1516201,31.4418861 41.3027316,30.2009317 41.8530273,29.4035645 C42.4033231,28.6061972 42.6784668,27.7919963 42.6784668,26.9609375 C42.6784668,25.6806577 42.0944883,24.6699256 40.9265137,23.9287109 C39.7585391,23.1874963 38.4558177,22.8168945 37.0183105,22.8168945 C33.8288415,22.8168945 30.3923524,24.0410034 26.7087402,26.4892578 L26.7087402,16.9208984 Z M36.7150879,51.2524414 C38.4445887,51.2524414 39.870844,51.8139592 40.9938965,52.9370117 C42.116949,54.0600642 42.6784668,55.407707 42.6784668,56.9799805 C42.6784668,58.574715 42.1113338,59.9335881 40.9770508,61.0566406 C39.8427678,62.1796931 38.5007402,62.7412109 36.9509277,62.7412109 C35.3786542,62.7412109 34.0366267,62.1796931 32.9248047,61.0566406 C31.8129827,59.9335881 31.2570801,58.5859454 31.2570801,57.0136719 C31.2570801,55.3964763 31.8298283,54.031988 32.9753418,52.920166 C34.1208553,51.8083441 35.3674249,51.2524414 36.7150879,51.2524414 Z" id="path-1"></path>
    </defs>
    <g id="Page-1" stroke="none" stroke-width="1" fill="none" fill-rule="evenodd">
        <g id="Group" transform="translate(1.000000, 1.000000)">
            <ellipse id="Oval" stroke="#979797" cx="38" cy="36" rx="38" ry="36"></ellipse>
            <g id="?" fill-rule="nonzero">
                <use fill="#FFFFFF" xlink:href="#path-1"></use>
                <use fill="#66215F" xlink:href="#path-1"></use>
            </g>
        </g>
    </g>
</svg>