<?xml version="1.0" encoding="UTF-8"?>
<svg width="1601px" height="1601px" viewBox="0 0 1601 1601" version="1.1" xmlns="http://www.w3.org/2000/svg" xmlns:xlink="http://www.w3.org/1999/xlink">
    <title>Group 2</title>
    <g id="Page-1" stroke="none" stroke-width="1" fill="none" fill-rule="evenodd">
        <g id="Group-2" transform="translate(0.900000, 0.900000)" fill-rule="nonzero">
            <circle id="Oval" fill="#DEFDFF" cx="800" cy="800" r="800"></circle>
            <g id="1747990" transform="translate(488.100000, 159.100000)" fill="#3B5993">
                <g id="Group" transform="translate(312.400000, 640.900000) scale(-1, 1) rotate(-180.000000) translate(-312.400000, -640.900000) translate(0.900000, 0.900000)">
                    <path d="M519.1,1278 C501.5,1274.2 487.5,1266.3 474.9,1253.1 C444.9,1221.7 443,1174.4 470.4,1140 C479.1,1129.1 495.1,1117.9 509.1,1113.1 L512.1,1112 C452.583496,967.540997 417.083496,823.607664 405.6,680.2 C388.374756,465.088504 509.1,295.484084 511.1,252.9 C513.1,210.315916 498.8,195.2 485,170.6 C443,96 360.3,49 271.1,48.9 C183.4,48.8 105.9,99.4 68.7,180.9 C60.7,198.5 53.4,223.7 51.2,241.9 C50.5,247.1 49.9,252.4 49.7,253.7 C49.3,256.5 48.6,256.5 71.2,253.4 C95.4,250.2 115.1,248.1 115.1,248.8 C115.1,249.5 6.3,378.1 2.5,381.9 L-4.26325641e-14,384.4 L0.4,314.9 C0.8,239.7 0.7,240.2 6.7,212.9 C18.1,161.1 45.3,113 84.5,75.1 C137,24.4 206.5,-2.2 279.6,0.2 C325.5,1.8 364.1,11.4 405.6,31.9 C461.9,59.6 507.1,104.3 533.6,158.4 C546.6,184.9 541.366185,172.711116 558.8,237.9 C576.233815,303.088884 417.025517,435.165266 443.712758,680.2 C461.504253,843.556489 500.8,987.489823 561.6,1112 L568.9,1115 C594.9,1125.4 614.8,1149.2 620.6,1176.9 C622.6,1186.2 622.5,1202 620.5,1211.7 C614.1,1242.9 590.5,1267.9 559,1276.9 C548.2,1280 530.3,1280.5 519.1,1278 Z M552.6,1241.7 C575.7,1234.2 590.4,1209.7 586.2,1186 C580.2,1152.7 544.6,1134.5 514.6,1149.3 C495.4,1158.8 484,1180.1 487,1200.7 C489.5,1217.5 499.7,1231.6 514.6,1239 C527.1,1245.2 539.4,1246 552.6,1241.7 Z" id="Shape"></path>
                </g>
            </g>
        </g>
    </g>
</svg>